<?xml version="1.0" encoding="UTF-8"?>
<svg id="Layer_1" xmlns="http://www.w3.org/2000/svg" version="1.1" viewBox="0 0 24 24">
  <!-- Generator: Adobe Illustrator 29.0.1, SVG Export Plug-In . SVG Version: 2.1.0 Build 192)  -->
  <defs>
    <style>
      .st0 {
        fill: #fff;
      }

      .st1 {
        fill: #bf0033;
      }
    </style>
  </defs>
  <rect class="st1" width="24" height="24" rx="3" ry="3"/>
  <path class="st0" d="M3,21V5.8l2.3-2.8h13.4l2.3,2.8v15.2H3ZM5.4,6h13.2l-.9-1H6.3l-.9,1ZM5,19h14V8H5v11ZM15.2,13.5l-2.1,2.1,1.5,1.5,3.6-3.6-3.6-3.6-1.5,1.5,2.1,2.1ZM8.9,13.5l2.1-2.1-1.5-1.5-3.6,3.6,3.6,3.6,1.5-1.5-2.1-2.1ZM5,19V8v11Z"/>
</svg>